<svg xmlns="http://www.w3.org/2000/svg" xmlns:xlink="http://www.w3.org/1999/xlink" width="500" zoomAndPan="magnify" viewBox="0 0 375 374.999991" height="500" preserveAspectRatio="xMidYMid meet" version="1.0"><defs><g/><clipPath id="d80d028725"><path d="M 8.914062 8.914062 L 366.085938 8.914062 L 366.085938 366.085938 L 8.914062 366.085938 Z M 8.914062 8.914062 " clip-rule="nonzero"/></clipPath><clipPath id="da40f2ec6a"><path d="M 187.5 8.914062 C 88.871094 8.914062 8.914062 88.871094 8.914062 187.5 C 8.914062 286.128906 88.871094 366.085938 187.5 366.085938 C 286.128906 366.085938 366.085938 286.128906 366.085938 187.5 C 366.085938 88.871094 286.128906 8.914062 187.5 8.914062 Z M 187.5 8.914062 " clip-rule="nonzero"/></clipPath></defs><g clip-path="url(#d80d028725)"><g clip-path="url(#da40f2ec6a)"><path fill="#e5daf8" d="M 8.914062 8.914062 L 366.085938 8.914062 L 366.085938 366.085938 L 8.914062 366.085938 Z M 8.914062 8.914062 " fill-opacity="1" fill-rule="nonzero"/></g></g><g fill="#222222" fill-opacity="1"><g transform="translate(13.795315, 247.393667)"><g><path d="M 95.078125 -32.140625 C 95.410156 -27.691406 94.492188 -23.5 92.328125 -19.5625 C 90.160156 -15.625 87.019531 -12.210938 82.90625 -9.328125 C 78.800781 -6.441406 74.054688 -4.164062 68.671875 -2.5 C 63.296875 -0.832031 57.609375 0 51.609375 0 C 43.835938 0 36.648438 -1.273438 30.046875 -3.828125 C 23.441406 -6.378906 18.171875 -9.816406 14.234375 -14.140625 C 10.296875 -18.472656 8.328125 -23.359375 8.328125 -28.796875 C 8.328125 -33.679688 10.070312 -37.875 13.5625 -41.375 C 17.0625 -44.875 21.253906 -46.625 26.140625 -46.625 C 31.023438 -46.625 35.210938 -44.875 38.703125 -41.375 C 42.203125 -37.875 43.953125 -33.679688 43.953125 -28.796875 C 43.953125 -25.691406 43.394531 -23.140625 42.28125 -21.140625 C 41.175781 -19.148438 39.929688 -17.488281 38.546875 -16.15625 C 37.160156 -14.820312 35.992188 -13.539062 35.046875 -12.3125 C 34.109375 -11.09375 33.800781 -9.707031 34.125 -8.15625 C 34.570312 -6.050781 36.238281 -4.332031 39.125 -3 C 42.007812 -1.664062 46.171875 -1 51.609375 -1 C 54.492188 -1 57.210938 -1.691406 59.765625 -3.078125 C 62.328125 -4.460938 64.410156 -6.347656 66.015625 -8.734375 C 67.628906 -11.128906 68.4375 -13.820312 68.4375 -16.8125 C 68.4375 -21.03125 66.992188 -25.023438 64.109375 -28.796875 C 61.222656 -32.578125 57.503906 -36.269531 52.953125 -39.875 C 48.398438 -43.476562 43.539062 -47.113281 38.375 -50.78125 C 33.21875 -54.445312 28.363281 -58.273438 23.8125 -62.265625 C 19.257812 -66.265625 15.539062 -70.484375 12.65625 -74.921875 C 9.769531 -79.359375 8.328125 -84.1875 8.328125 -89.40625 C 8.328125 -94.40625 9.65625 -98.625 12.3125 -102.0625 C 14.976562 -105.5 18.445312 -108.300781 22.71875 -110.46875 C 27 -112.632812 31.609375 -114.1875 36.546875 -115.125 C 41.484375 -116.070312 46.171875 -116.546875 50.609375 -116.546875 C 55.941406 -116.546875 60.601562 -116.15625 64.59375 -115.375 C 68.59375 -114.601562 72.925781 -114.21875 77.59375 -114.21875 C 79.476562 -114.21875 81.171875 -114.382812 82.671875 -114.71875 C 84.171875 -115.050781 85.472656 -115.660156 86.578125 -116.546875 L 87.578125 -116.546875 L 87.578125 -85.078125 C 87.578125 -85.078125 87.460938 -85.078125 87.234375 -85.078125 C 87.015625 -85.078125 86.796875 -85.078125 86.578125 -85.078125 C 85.691406 -89.742188 83.804688 -94.40625 80.921875 -99.0625 C 78.035156 -103.726562 74.367188 -107.613281 69.921875 -110.71875 C 65.484375 -113.832031 60.378906 -115.390625 54.609375 -115.390625 C 50.390625 -115.390625 46.613281 -114.304688 43.28125 -112.140625 C 39.957031 -109.972656 38.128906 -106.394531 37.796875 -101.40625 C 37.460938 -97.070312 38.539062 -93.070312 41.03125 -89.40625 C 43.53125 -85.75 46.890625 -82.226562 51.109375 -78.84375 C 55.328125 -75.457031 59.847656 -72.070312 64.671875 -68.6875 C 69.503906 -65.300781 74.140625 -61.773438 78.578125 -58.109375 C 83.023438 -54.441406 86.773438 -50.5 89.828125 -46.28125 C 92.878906 -42.0625 94.628906 -37.347656 95.078125 -32.140625 Z M 95.078125 -32.140625 "/></g></g></g><g fill="#222222" fill-opacity="1"><g transform="translate(110.663568, 247.393667)"><g><path d="M 139.03125 -115.546875 C 136.25 -115.546875 133.882812 -114.570312 131.9375 -112.625 C 130 -110.6875 129.03125 -108.332031 129.03125 -105.5625 L 129.03125 -10.984375 C 129.03125 -8.210938 130 -5.851562 131.9375 -3.90625 C 133.882812 -1.96875 136.25 -1 139.03125 -1 L 139.03125 0 L 89.578125 0 L 89.578125 -1 C 92.460938 -1 94.875 -1.96875 96.8125 -3.90625 C 98.757812 -5.851562 99.734375 -8.210938 99.734375 -10.984375 L 99.734375 -107.0625 C 99.617188 -106.945312 99.585938 -106.914062 99.640625 -106.96875 C 99.703125 -107.03125 99.675781 -107.003906 99.5625 -106.890625 L 62.4375 0 L 25.640625 -106.390625 L 25.640625 -20.984375 C 25.640625 -17.429688 26.5 -14.128906 28.21875 -11.078125 C 29.9375 -8.023438 32.296875 -5.582031 35.296875 -3.75 C 38.296875 -1.914062 41.570312 -1 45.125 -1 L 45.125 0 L 5 0 L 5 -1 C 8.65625 -1 11.953125 -1.914062 14.890625 -3.75 C 17.835938 -5.582031 20.195312 -8.023438 21.96875 -11.078125 C 23.75 -14.128906 24.640625 -17.429688 24.640625 -20.984375 L 24.640625 -105.5625 C 24.640625 -108.332031 23.664062 -110.6875 21.71875 -112.625 C 19.78125 -114.570312 17.425781 -115.546875 14.65625 -115.546875 L 14.15625 -115.546875 L 14.15625 -116.546875 L 53.109375 -116.546875 L 77.59375 -46.28125 L 101.890625 -116.546875 L 139.03125 -116.546875 Z M 139.03125 -115.546875 "/></g></g></g><g fill="#222222" fill-opacity="1"><g transform="translate(259.609672, 247.393667)"><g><path d="M 12.328125 -24.140625 C 14.878906 -27.691406 18.039062 -29.992188 21.8125 -31.046875 C 25.582031 -32.109375 29.769531 -32.304688 34.375 -31.640625 C 38.988281 -30.972656 43.734375 -29.890625 48.609375 -28.390625 C 53.492188 -26.890625 58.269531 -25.332031 62.9375 -23.71875 C 67.601562 -22.113281 71.929688 -20.863281 75.921875 -19.96875 C 79.921875 -19.082031 83.363281 -18.890625 86.25 -19.390625 C 89.132812 -19.890625 91.128906 -21.582031 92.234375 -24.46875 L 93.234375 -24.46875 C 93.234375 -24.46875 93.007812 -23.492188 92.5625 -21.546875 C 92.125 -19.609375 91.320312 -17.140625 90.15625 -14.140625 C 88.988281 -11.148438 87.238281 -7.960938 84.90625 -4.578125 C 82.582031 -1.191406 79.53125 1.941406 75.75 4.828125 C 72.3125 6.929688 68.648438 7.898438 64.765625 7.734375 C 60.878906 7.578125 56.910156 6.832031 52.859375 5.5 C 48.804688 4.164062 44.726562 2.582031 40.625 0.75 C 36.519531 -1.082031 32.523438 -2.664062 28.640625 -4 C 24.753906 -5.332031 21.035156 -6 17.484375 -6 C 15.035156 -6 12.867188 -5.550781 10.984375 -4.65625 C 9.097656 -3.769531 7.546875 -2.21875 6.328125 0 L 5.328125 0 C 4.660156 -6.21875 5.601562 -12.265625 8.15625 -18.140625 C 10.707031 -24.023438 14.34375 -29.742188 19.0625 -35.296875 C 23.78125 -40.847656 29.160156 -46.203125 35.203125 -51.359375 C 41.253906 -56.523438 47.503906 -61.4375 53.953125 -66.09375 C 59.492188 -70.3125 64.707031 -74.171875 69.59375 -77.671875 C 74.476562 -81.171875 78.753906 -84.695312 82.421875 -88.25 L 31.296875 -88.25 C 26.859375 -88.25 23.582031 -87.609375 21.46875 -86.328125 C 19.363281 -85.054688 17.644531 -83.421875 16.3125 -81.421875 L 15.3125 -81.421875 L 15.3125 -110.21875 C 15.3125 -112 16.003906 -113.5 17.390625 -114.71875 C 18.785156 -115.9375 20.425781 -116.546875 22.3125 -116.546875 L 95.078125 -116.546875 L 96.234375 -115.71875 C 96.128906 -106.613281 92.851562 -98.398438 86.40625 -91.078125 C 82.632812 -86.640625 78 -82.445312 72.5 -78.5 C 67.007812 -74.5625 60.992188 -70.207031 54.453125 -65.4375 C 46.117188 -59.332031 38.125 -52.8125 30.46875 -45.875 C 22.8125 -38.9375 16.765625 -31.691406 12.328125 -24.140625 Z M 12.328125 -24.140625 "/></g></g></g></svg>