<svg xmlns="http://www.w3.org/2000/svg" xmlns:xlink="http://www.w3.org/1999/xlink" width="500" zoomAndPan="magnify" viewBox="0 0 375 374.999991" height="500" preserveAspectRatio="xMidYMid meet" version="1.0"><defs><g/></defs><g fill="#222222" fill-opacity="1"><g transform="translate(6.741892, 211.406457)"><g><path d="M 58.640625 -19.828125 C 58.847656 -17.085938 58.285156 -14.5 56.953125 -12.0625 C 55.617188 -9.632812 53.679688 -7.53125 51.140625 -5.75 C 48.609375 -3.96875 45.679688 -2.5625 42.359375 -1.53125 C 39.046875 -0.507812 35.539062 0 31.84375 0 C 27.050781 0 22.613281 -0.785156 18.53125 -2.359375 C 14.457031 -3.929688 11.207031 -6.050781 8.78125 -8.71875 C 6.351562 -11.394531 5.140625 -14.410156 5.140625 -17.765625 C 5.140625 -20.773438 6.21875 -23.359375 8.375 -25.515625 C 10.53125 -27.671875 13.113281 -28.75 16.125 -28.75 C 19.132812 -28.75 21.71875 -27.671875 23.875 -25.515625 C 26.03125 -23.359375 27.109375 -20.773438 27.109375 -17.765625 C 27.109375 -15.847656 26.765625 -14.269531 26.078125 -13.03125 C 25.398438 -11.800781 24.628906 -10.773438 23.765625 -9.953125 C 22.910156 -9.140625 22.191406 -8.351562 21.609375 -7.59375 C 21.035156 -6.84375 20.847656 -5.988281 21.046875 -5.03125 C 21.328125 -3.726562 22.359375 -2.664062 24.140625 -1.84375 C 25.921875 -1.019531 28.488281 -0.609375 31.84375 -0.609375 C 33.625 -0.609375 35.300781 -1.035156 36.875 -1.890625 C 38.445312 -2.753906 39.726562 -3.921875 40.71875 -5.390625 C 41.71875 -6.859375 42.21875 -8.519531 42.21875 -10.375 C 42.21875 -12.976562 41.328125 -15.441406 39.546875 -17.765625 C 37.765625 -20.097656 35.46875 -22.375 32.65625 -24.59375 C 29.851562 -26.820312 26.859375 -29.066406 23.671875 -31.328125 C 20.484375 -33.585938 17.484375 -35.945312 14.671875 -38.40625 C 11.867188 -40.875 9.578125 -43.476562 7.796875 -46.21875 C 6.023438 -48.957031 5.140625 -51.9375 5.140625 -55.15625 C 5.140625 -58.226562 5.957031 -60.828125 7.59375 -62.953125 C 9.238281 -65.078125 11.378906 -66.804688 14.015625 -68.140625 C 16.648438 -69.472656 19.488281 -70.429688 22.53125 -71.015625 C 25.582031 -71.597656 28.476562 -71.890625 31.21875 -71.890625 C 34.507812 -71.890625 37.382812 -71.648438 39.84375 -71.171875 C 42.3125 -70.691406 44.984375 -70.453125 47.859375 -70.453125 C 49.023438 -70.453125 50.066406 -70.554688 50.984375 -70.765625 C 51.910156 -70.972656 52.71875 -71.347656 53.40625 -71.890625 L 54.015625 -71.890625 L 54.015625 -52.484375 C 54.015625 -52.484375 53.945312 -52.484375 53.8125 -52.484375 C 53.675781 -52.484375 53.539062 -52.484375 53.40625 -52.484375 C 52.851562 -55.359375 51.6875 -58.234375 49.90625 -61.109375 C 48.132812 -63.984375 45.878906 -66.378906 43.140625 -68.296875 C 40.398438 -70.210938 37.25 -71.171875 33.6875 -71.171875 C 31.082031 -71.171875 28.753906 -70.503906 26.703125 -69.171875 C 24.648438 -67.835938 23.519531 -65.628906 23.3125 -62.546875 C 23.101562 -59.878906 23.769531 -57.414062 25.3125 -55.15625 C 26.851562 -52.894531 28.925781 -50.71875 31.53125 -48.625 C 34.132812 -46.539062 36.925781 -44.453125 39.90625 -42.359375 C 42.882812 -40.273438 45.738281 -38.101562 48.46875 -35.84375 C 51.207031 -33.582031 53.519531 -31.148438 55.40625 -28.546875 C 57.289062 -25.953125 58.367188 -23.046875 58.640625 -19.828125 Z M 58.640625 -19.828125 "/></g></g></g><g fill="#222222" fill-opacity="1"><g transform="translate(57.578886, 211.406457)"><g><path d="M 76.203125 -5.65625 C 76.203125 -4.414062 76.613281 -3.316406 77.4375 -2.359375 C 78.257812 -1.398438 79.253906 -0.816406 80.421875 -0.609375 L 80.421875 0 L 56.59375 0 L 56.59375 -0.609375 C 57.75 -0.816406 58.738281 -1.398438 59.5625 -2.359375 C 60.382812 -3.316406 60.796875 -4.414062 60.796875 -5.65625 L 60.796875 -35.953125 C 60.796875 -37.722656 61.238281 -39.125 62.125 -40.15625 C 63.019531 -41.1875 63.910156 -42.160156 64.796875 -43.078125 C 65.691406 -44.003906 66.140625 -45.082031 66.140625 -46.3125 C 66.140625 -47.476562 65.472656 -48.367188 64.140625 -48.984375 C 62.804688 -49.597656 61.144531 -49.90625 59.15625 -49.90625 C 56.207031 -49.90625 53.585938 -49.410156 51.296875 -48.421875 C 49.003906 -47.429688 47.550781 -46.695312 46.9375 -46.21875 C 48.4375 -44.09375 49.1875 -41.148438 49.1875 -37.390625 L 49.1875 -5.65625 C 49.1875 -4.414062 49.597656 -3.316406 50.421875 -2.359375 C 51.242188 -1.398438 52.238281 -0.816406 53.40625 -0.609375 L 53.40625 0 L 29.578125 0 L 29.578125 -0.609375 C 30.742188 -0.816406 31.738281 -1.398438 32.5625 -2.359375 C 33.382812 -3.316406 33.796875 -4.414062 33.796875 -5.65625 L 33.796875 -35.953125 C 33.796875 -37.722656 34.238281 -39.125 35.125 -40.15625 C 36.007812 -41.1875 36.894531 -42.160156 37.78125 -43.078125 C 38.675781 -44.003906 39.125 -45.082031 39.125 -46.3125 C 39.125 -47.476562 38.472656 -48.367188 37.171875 -48.984375 C 35.878906 -49.597656 34.203125 -49.90625 32.140625 -49.90625 C 28.992188 -49.90625 25.675781 -49.117188 22.1875 -47.546875 L 22.1875 -5.65625 C 22.1875 -4.414062 22.597656 -3.316406 23.421875 -2.359375 C 24.242188 -1.398438 25.234375 -0.816406 26.390625 -0.609375 L 26.390625 0 L 2.5625 0 L 2.5625 -0.609375 C 3.726562 -0.816406 4.722656 -1.398438 5.546875 -2.359375 C 6.367188 -3.316406 6.78125 -4.414062 6.78125 -5.65625 L 6.78125 -42.21875 C 6.78125 -43.507812 6.367188 -44.617188 5.546875 -45.546875 C 4.722656 -46.472656 3.726562 -47.039062 2.5625 -47.25 L 2.5625 -47.859375 L 20.125 -50.421875 C 20.195312 -50.421875 20.25 -50.421875 20.28125 -50.421875 C 20.3125 -50.421875 20.363281 -50.421875 20.4375 -50.421875 C 21.601562 -50.421875 22.1875 -49.84375 22.1875 -48.6875 L 22.1875 -48.265625 C 23.96875 -49.160156 25.984375 -49.894531 28.234375 -50.46875 C 30.492188 -51.050781 32.785156 -51.378906 35.109375 -51.453125 C 37.441406 -51.523438 39.617188 -51.203125 41.640625 -50.484375 C 43.660156 -49.765625 45.320312 -48.515625 46.625 -46.734375 C 49.09375 -48.367188 51.765625 -49.5625 54.640625 -50.3125 C 57.515625 -51.070312 60.082031 -51.453125 62.34375 -51.453125 C 64.800781 -51.453125 67.070312 -51.003906 69.15625 -50.109375 C 71.25 -49.222656 72.945312 -47.769531 74.25 -45.75 C 75.550781 -43.726562 76.203125 -40.941406 76.203125 -37.390625 Z M 76.203125 -5.65625 "/></g></g></g><g fill="#222222" fill-opacity="1"><g transform="translate(129.572589, 211.406457)"><g><path d="M 6.78125 -5.65625 L 6.78125 -42.21875 C 6.78125 -43.507812 6.367188 -44.617188 5.546875 -45.546875 C 4.722656 -46.472656 3.726562 -47.039062 2.5625 -47.25 L 2.5625 -47.859375 L 20.125 -50.421875 C 20.195312 -50.421875 20.25 -50.421875 20.28125 -50.421875 C 20.3125 -50.421875 20.363281 -50.421875 20.4375 -50.421875 C 21.601562 -50.421875 22.1875 -49.84375 22.1875 -48.6875 L 22.1875 -5.65625 C 22.1875 -4.414062 22.597656 -3.316406 23.421875 -2.359375 C 24.242188 -1.398438 25.234375 -0.816406 26.390625 -0.609375 L 26.390625 0 L 2.5625 0 L 2.5625 -0.609375 C 3.726562 -0.816406 4.722656 -1.398438 5.546875 -2.359375 C 6.367188 -3.316406 6.78125 -4.414062 6.78125 -5.65625 Z M 22.484375 -63.875 C 22.484375 -61.757812 21.695312 -59.910156 20.125 -58.328125 C 18.550781 -56.753906 16.671875 -55.96875 14.484375 -55.96875 C 12.285156 -55.96875 10.414062 -56.753906 8.875 -58.328125 C 7.34375 -59.910156 6.578125 -61.757812 6.578125 -63.875 C 6.578125 -66.070312 7.34375 -67.957031 8.875 -69.53125 C 10.414062 -71.101562 12.285156 -71.890625 14.484375 -71.890625 C 16.671875 -71.890625 18.550781 -71.101562 20.125 -69.53125 C 21.695312 -67.957031 22.484375 -66.070312 22.484375 -63.875 Z M 22.484375 -63.875 "/></g></g></g><g fill="#222222" fill-opacity="1"><g transform="translate(147.544787, 211.406457)"><g><path d="M 22.1875 -70.046875 L 22.1875 -5.65625 C 22.1875 -4.414062 22.597656 -3.316406 23.421875 -2.359375 C 24.242188 -1.398438 25.234375 -0.816406 26.390625 -0.609375 L 26.390625 0 L 2.5625 0 L 2.5625 -0.609375 C 3.726562 -0.816406 4.722656 -1.398438 5.546875 -2.359375 C 6.367188 -3.316406 6.78125 -4.414062 6.78125 -5.65625 L 6.78125 -63.671875 C 6.78125 -64.910156 6.367188 -66.007812 5.546875 -66.96875 C 4.722656 -67.925781 3.726562 -68.503906 2.5625 -68.703125 L 2.5625 -69.328125 L 20.125 -71.890625 C 20.195312 -71.890625 20.25 -71.890625 20.28125 -71.890625 C 20.3125 -71.890625 20.363281 -71.890625 20.4375 -71.890625 C 21.601562 -71.890625 22.1875 -71.273438 22.1875 -70.046875 Z M 22.1875 -70.046875 "/></g></g></g><g fill="#222222" fill-opacity="1"><g transform="translate(165.516984, 211.406457)"><g><path d="M 35.734375 -6.578125 C 37.722656 -6.578125 39.625 -7.054688 41.4375 -8.015625 C 43.25 -8.972656 44.875 -10.304688 46.3125 -12.015625 L 46.828125 -11.703125 C 44.773438 -8.003906 42.003906 -5.039062 38.515625 -2.8125 C 35.023438 -0.59375 31.191406 0.515625 27.015625 0.515625 C 22.703125 0.515625 18.78125 -0.644531 15.25 -2.96875 C 11.726562 -5.300781 8.90625 -8.4375 6.78125 -12.375 C 4.65625 -16.3125 3.59375 -20.675781 3.59375 -25.46875 C 3.59375 -30.257812 4.65625 -34.625 6.78125 -38.5625 C 8.90625 -42.5 11.726562 -45.628906 15.25 -47.953125 C 18.78125 -50.285156 22.703125 -51.453125 27.015625 -51.453125 C 30.773438 -51.453125 34.144531 -50.5625 37.125 -48.78125 C 40.101562 -47 42.601562 -44.582031 44.625 -41.53125 C 46.644531 -38.488281 48.03125 -35.019531 48.78125 -31.125 L 19 -31.125 C 19 -26.601562 19.75 -22.472656 21.25 -18.734375 C 22.757812 -15.003906 24.78125 -12.046875 27.3125 -9.859375 C 29.851562 -7.671875 32.660156 -6.578125 35.734375 -6.578125 Z M 27.015625 -50.84375 C 25.578125 -50.84375 24.394531 -50.3125 23.46875 -49.25 C 22.539062 -48.1875 21.769531 -46.816406 21.15625 -45.140625 C 20.539062 -43.460938 20.09375 -41.734375 19.8125 -39.953125 C 19.539062 -38.171875 19.335938 -36.523438 19.203125 -35.015625 C 19.066406 -33.515625 19 -32.421875 19 -31.734375 L 34.8125 -31.734375 C 34.195312 -44.472656 31.597656 -50.84375 27.015625 -50.84375 Z M 27.015625 -50.84375 "/></g></g></g><g fill="#222222" fill-opacity="1"><g transform="translate(205.878334, 211.406457)"><g><path d="M 3.28125 0 L 2.671875 0 C 2.398438 -2.601562 2.84375 -5.15625 4 -7.65625 C 5.164062 -10.15625 6.773438 -12.582031 8.828125 -14.9375 C 10.878906 -17.300781 13.140625 -19.507812 15.609375 -21.5625 C 18.078125 -23.625 20.441406 -25.472656 22.703125 -27.109375 C 25.097656 -28.890625 27.390625 -30.5 29.578125 -31.9375 C 31.765625 -33.375 33.71875 -34.78125 35.4375 -36.15625 L 14.078125 -36.15625 C 12.148438 -36.15625 10.722656 -35.878906 9.796875 -35.328125 C 8.878906 -34.785156 8.144531 -34.066406 7.59375 -33.171875 L 6.984375 -33.171875 L 6.984375 -47.65625 C 6.984375 -48.40625 7.273438 -49.050781 7.859375 -49.59375 C 8.441406 -50.144531 9.175781 -50.421875 10.0625 -50.421875 L 43.546875 -50.421875 L 44.0625 -50.015625 C 43.988281 -46.867188 43.21875 -44.195312 41.75 -42 C 40.28125 -39.8125 38.3125 -37.722656 35.84375 -35.734375 C 34.132812 -34.367188 32.179688 -32.96875 29.984375 -31.53125 C 27.796875 -30.09375 25.503906 -28.484375 23.109375 -26.703125 C 20.441406 -24.785156 17.6875 -22.59375 14.84375 -20.125 C 12 -17.664062 9.550781 -15.066406 7.5 -12.328125 C 8.863281 -13.828125 10.585938 -14.660156 12.671875 -14.828125 C 14.765625 -15.003906 17.007812 -14.800781 19.40625 -14.21875 C 21.800781 -13.632812 24.210938 -12.945312 26.640625 -12.15625 C 29.078125 -11.375 31.375 -10.675781 33.53125 -10.0625 C 35.6875 -9.445312 37.535156 -9.222656 39.078125 -9.390625 C 40.617188 -9.566406 41.664062 -10.335938 42.21875 -11.703125 L 42.828125 -11.609375 C 42.828125 -11.609375 42.738281 -11.144531 42.5625 -10.21875 C 42.394531 -9.289062 42.035156 -8.09375 41.484375 -6.625 C 40.941406 -5.15625 40.171875 -3.648438 39.171875 -2.109375 C 38.179688 -0.566406 36.867188 0.816406 35.234375 2.046875 C 33.378906 3.148438 31.285156 3.5625 28.953125 3.28125 C 26.628906 3.007812 24.21875 2.394531 21.71875 1.4375 C 19.21875 0.476562 16.800781 -0.425781 14.46875 -1.28125 C 12.144531 -2.132812 10.023438 -2.5625 8.109375 -2.5625 C 7.085938 -2.5625 6.164062 -2.375 5.34375 -2 C 4.519531 -1.625 3.832031 -0.957031 3.28125 0 Z M 3.28125 0 "/></g></g></g><g fill="#222222" fill-opacity="1"><g transform="translate(241.51538, 211.406457)"><g><path d="M 35.734375 -6.578125 C 37.722656 -6.578125 39.625 -7.054688 41.4375 -8.015625 C 43.25 -8.972656 44.875 -10.304688 46.3125 -12.015625 L 46.828125 -11.703125 C 44.773438 -8.003906 42.003906 -5.039062 38.515625 -2.8125 C 35.023438 -0.59375 31.191406 0.515625 27.015625 0.515625 C 22.703125 0.515625 18.78125 -0.644531 15.25 -2.96875 C 11.726562 -5.300781 8.90625 -8.4375 6.78125 -12.375 C 4.65625 -16.3125 3.59375 -20.675781 3.59375 -25.46875 C 3.59375 -30.257812 4.65625 -34.625 6.78125 -38.5625 C 8.90625 -42.5 11.726562 -45.628906 15.25 -47.953125 C 18.78125 -50.285156 22.703125 -51.453125 27.015625 -51.453125 C 30.773438 -51.453125 34.144531 -50.5625 37.125 -48.78125 C 40.101562 -47 42.601562 -44.582031 44.625 -41.53125 C 46.644531 -38.488281 48.03125 -35.019531 48.78125 -31.125 L 19 -31.125 C 19 -26.601562 19.75 -22.472656 21.25 -18.734375 C 22.757812 -15.003906 24.78125 -12.046875 27.3125 -9.859375 C 29.851562 -7.671875 32.660156 -6.578125 35.734375 -6.578125 Z M 27.015625 -50.84375 C 25.578125 -50.84375 24.394531 -50.3125 23.46875 -49.25 C 22.539062 -48.1875 21.769531 -46.816406 21.15625 -45.140625 C 20.539062 -43.460938 20.09375 -41.734375 19.8125 -39.953125 C 19.539062 -38.171875 19.335938 -36.523438 19.203125 -35.015625 C 19.066406 -33.515625 19 -32.421875 19 -31.734375 L 34.8125 -31.734375 C 34.195312 -44.472656 31.597656 -50.84375 27.015625 -50.84375 Z M 27.015625 -50.84375 "/></g></g></g><g fill="#222222" fill-opacity="1"><g transform="translate(281.87674, 211.406457)"><g><path d="M 35.734375 -6.578125 C 37.722656 -6.578125 39.625 -7.054688 41.4375 -8.015625 C 43.25 -8.972656 44.875 -10.304688 46.3125 -12.015625 L 46.828125 -11.703125 C 44.773438 -8.003906 42.003906 -5.039062 38.515625 -2.8125 C 35.023438 -0.59375 31.191406 0.515625 27.015625 0.515625 C 22.703125 0.515625 18.78125 -0.644531 15.25 -2.96875 C 11.726562 -5.300781 8.90625 -8.4375 6.78125 -12.375 C 4.65625 -16.3125 3.59375 -20.675781 3.59375 -25.46875 C 3.59375 -30.257812 4.65625 -34.625 6.78125 -38.5625 C 8.90625 -42.5 11.726562 -45.628906 15.25 -47.953125 C 18.78125 -50.285156 22.703125 -51.453125 27.015625 -51.453125 C 30.773438 -51.453125 34.144531 -50.5625 37.125 -48.78125 C 40.101562 -47 42.601562 -44.582031 44.625 -41.53125 C 46.644531 -38.488281 48.03125 -35.019531 48.78125 -31.125 L 19 -31.125 C 19 -26.601562 19.75 -22.472656 21.25 -18.734375 C 22.757812 -15.003906 24.78125 -12.046875 27.3125 -9.859375 C 29.851562 -7.671875 32.660156 -6.578125 35.734375 -6.578125 Z M 27.015625 -50.84375 C 25.578125 -50.84375 24.394531 -50.3125 23.46875 -49.25 C 22.539062 -48.1875 21.769531 -46.816406 21.15625 -45.140625 C 20.539062 -43.460938 20.09375 -41.734375 19.8125 -39.953125 C 19.539062 -38.171875 19.335938 -36.523438 19.203125 -35.015625 C 19.066406 -33.515625 19 -32.421875 19 -31.734375 L 34.8125 -31.734375 C 34.195312 -44.472656 31.597656 -50.84375 27.015625 -50.84375 Z M 27.015625 -50.84375 "/></g></g></g><g fill="#222222" fill-opacity="1"><g transform="translate(322.2381, 211.406457)"><g><path d="M 42.3125 -13.859375 C 42.519531 -11.191406 41.734375 -8.757812 39.953125 -6.5625 C 38.171875 -4.375 35.773438 -2.644531 32.765625 -1.375 C 29.753906 -0.113281 26.46875 0.515625 22.90625 0.515625 C 19.414062 0.515625 16.210938 -0.0664062 13.296875 -1.234375 C 10.390625 -2.398438 8.046875 -3.988281 6.265625 -6 C 4.484375 -8.019531 3.59375 -10.300781 3.59375 -12.84375 C 3.59375 -15.03125 4.378906 -16.894531 5.953125 -18.4375 C 7.523438 -19.976562 9.375 -20.75 11.5 -20.75 C 13.695312 -20.75 15.582031 -19.976562 17.15625 -18.4375 C 18.726562 -16.894531 19.515625 -15.03125 19.515625 -12.84375 C 19.515625 -10.988281 19.117188 -9.566406 18.328125 -8.578125 C 17.546875 -7.585938 16.742188 -6.765625 15.921875 -6.109375 C 15.097656 -5.460938 14.6875 -4.691406 14.6875 -3.796875 C 14.6875 -3.046875 15.0625 -2.328125 15.8125 -1.640625 C 16.570312 -0.953125 17.460938 -0.539062 18.484375 -0.40625 C 19.171875 -0.34375 19.820312 -0.273438 20.4375 -0.203125 C 21.050781 -0.140625 21.875 -0.109375 22.90625 -0.109375 C 24.75 -0.109375 26.320312 -0.753906 27.625 -2.046875 C 28.925781 -3.347656 29.578125 -4.925781 29.578125 -6.78125 C 29.578125 -8.488281 28.941406 -10.144531 27.671875 -11.75 C 26.410156 -13.363281 24.800781 -14.972656 22.84375 -16.578125 C 20.894531 -18.191406 18.804688 -19.851562 16.578125 -21.5625 C 14.359375 -23.28125 12.269531 -25.046875 10.3125 -26.859375 C 8.363281 -28.671875 6.753906 -30.617188 5.484375 -32.703125 C 4.222656 -34.796875 3.59375 -37.039062 3.59375 -39.4375 C 3.59375 -42.175781 4.515625 -44.4375 6.359375 -46.21875 C 8.210938 -48 10.472656 -49.316406 13.140625 -50.171875 C 15.816406 -51.023438 18.421875 -51.453125 20.953125 -51.453125 C 23.421875 -51.453125 25.492188 -51.210938 27.171875 -50.734375 C 28.847656 -50.253906 30.351562 -49.804688 31.6875 -49.390625 C 33.019531 -48.984375 34.40625 -48.816406 35.84375 -48.890625 C 36.394531 -48.953125 36.890625 -49.085938 37.328125 -49.296875 C 37.773438 -49.503906 38.132812 -49.742188 38.40625 -50.015625 L 38.921875 -50.015625 L 38.921875 -33.375 C 38.921875 -33.375 38.867188 -33.375 38.765625 -33.375 C 38.660156 -33.375 38.539062 -33.375 38.40625 -33.375 C 38 -35.425781 37.316406 -37.71875 36.359375 -40.25 C 35.398438 -42.789062 33.976562 -45.050781 32.09375 -47.03125 C 30.207031 -49.019531 27.585938 -50.21875 24.234375 -50.625 C 22.453125 -50.90625 20.910156 -50.566406 19.609375 -49.609375 C 18.316406 -48.648438 17.597656 -47.070312 17.453125 -44.875 C 17.316406 -42.6875 18.019531 -40.664062 19.5625 -38.8125 C 21.101562 -36.96875 23.070312 -35.140625 25.46875 -33.328125 C 27.863281 -31.515625 30.3125 -29.648438 32.8125 -27.734375 C 35.3125 -25.816406 37.453125 -23.726562 39.234375 -21.46875 C 41.015625 -19.207031 42.039062 -16.671875 42.3125 -13.859375 Z M 42.3125 -13.859375 "/></g></g></g></svg>